<?xml version="1.0" ?><!DOCTYPE svg  PUBLIC '-//W3C//DTD SVG 1.1//EN'  'http://www.w3.org/Graphics/SVG/1.1/DTD/svg11.dtd'><svg enable-background="new 0 0 128 128" height="128px" id="Layer_1" version="1.1" viewBox="0 0 128 128" width="128px" xml:space="preserve" xmlns="http://www.w3.org/2000/svg" xmlns:xlink="http://www.w3.org/1999/xlink">
<path d="M64.038,38.554c-7.294,0-13.229-5.935-13.229-13.23c0-7.293,5.935-13.227,13.229-13.227c7.295,0,13.23,5.934,13.23,13.227  C77.269,32.619,71.333,38.554,64.038,38.554z M64.038,16.096c-5.089,0-9.229,4.139-9.229,9.227c0,5.09,4.14,9.23,9.229,9.23  c5.09,0,9.23-4.141,9.23-9.23C73.269,20.235,69.128,16.096,64.038,16.096z" style="fill:#3b9aff; stroke:#3b9aff" />
<path d="M64.038,115.977c-1.104,0-2-0.896-2-2V38.323c0-1.104,0.896-2,2-2s2,0.896,2,2v75.653  C66.038,115.081,65.143,115.977,64.038,115.977z" style="fill:#3b9aff; stroke:#3b9aff"/>
<path d="M64.038,115.977c-23.804,0-43.17-19.367-43.17-43.172c0-1.104,0.896-2,2-2h8.957c1.104,0,2,0.896,2,2c0,1.104-0.896,2-2,2  h-6.906c1.045,20.673,18.191,37.172,39.119,37.172c20.929,0,38.076-16.499,39.121-37.172h-6.787c-1.104,0-2-0.896-2-2  c0-1.104,0.896-2,2-2h8.838c1.104,0,2,0.896,2,2C107.21,96.609,87.843,115.977,64.038,115.977z" style="fill:#3b9aff; stroke:#3b9aff"/>
<path d="M77.706,56.388H50.372c-1.104,0-2-0.895-2-2c0-1.104,0.896-2,2-2h27.334c1.104,0,2,0.896,2,2  C79.706,55.493,78.811,56.388,77.706,56.388z" style="fill:#3b9aff; stroke:#3b9aff"/></svg>